 <svg version="1.0" xmlns="http://www.w3.org/2000/svg" width="700.000000pt" height="570.000000pt" viewBox="0 0 700.000000 570.000000" preserveAspectRatio="xMidYMid meet">
<metadata>
Created by potrace 1.12, written by Peter Selinger 2001-2015
</metadata>
<g transform="translate(0.000000,570.000000) scale(0.100000,-0.100000)" fill="#000000" stroke="none">
<path d="M3433 5028 c-5 -7 -20 -35 -32 -62 -12 -27 -40 -77 -62 -111 -45 -71
-47 -81 -18 -90 33 -11 89 -65 104 -103 13 -29 17 -32 30 -22 8 7 15 19 15 28
0 18 75 92 94 92 8 0 19 6 25 14 10 12 5 24 -22 63 -33 47 -73 121 -95 176
-13 29 -24 34 -39 15z m38 -80 c7 -18 30 -60 52 -93 l39 -60 -22 -15 c-13 -8
-40 -32 -60 -53 l-37 -38 -27 36 c-16 20 -39 40 -52 45 -33 13 -30 29 16 101
22 34 40 67 40 74 0 12 20 35 31 35 4 0 12 -15 20 -32z"></path>
<path d="M3161 4693 c-36 -7 -97 -51 -110 -79 -29 -65 0 -163 57 -185 l27 -11
-40 -31 c-160 -125 -265 -317 -265 -484 0 -33 -3 -62 -6 -66 -4 -3 -23 7 -43
23 -20 16 -57 34 -84 41 -40 10 -54 9 -92 -5 -24 -10 -58 -33 -75 -52 -27 -31
-30 -42 -30 -98 0 -53 4 -68 28 -99 66 -87 184 -83 228 8 13 29 14 40 4 64
-16 40 -57 78 -70 65 -7 -7 -2 -18 15 -34 32 -30 34 -88 5 -115 -30 -27 -105
-23 -137 7 -70 65 -69 151 3 207 43 34 133 30 188 -9 64 -43 104 -148 86 -223
-38 -160 -125 -272 -263 -340 -112 -55 -187 -67 -267 -43 -98 29 -160 101
-160 184 0 107 122 172 191 103 38 -38 39 -87 4 -129 -18 -22 -22 -33 -13 -38
7 -4 22 6 40 26 43 52 40 107 -10 160 -34 35 -44 40 -83 40 -114 0 -183 -112
-141 -231 15 -43 29 -63 74 -99 65 -52 117 -69 238 -77 86 -5 197 10 320 44
156 43 231 55 341 55 92 0 112 -4 160 -26 101 -48 150 -111 135 -171 -8 -33
-49 -53 -71 -35 -24 20 -19 50 8 50 30 0 40 10 26 27 -27 32 -89 -4 -89 -51 0
-29 42 -66 76 -66 12 0 37 12 54 27 l32 27 18 -24 c14 -19 28 -25 60 -25 46 0
70 21 70 62 0 49 -79 86 -88 41 -3 -14 3 -18 23 -18 30 0 43 -23 25 -45 -32
-39 -96 14 -86 70 7 34 70 96 131 128 85 43 248 40 440 -10 256 -65 356 -75
486 -48 215 45 304 256 156 369 -52 40 -116 37 -160 -8 -53 -52 -57 -116 -12
-172 19 -23 26 -27 36 -17 10 10 8 18 -14 41 -55 57 -19 140 64 149 41 5 50 2
81 -25 71 -63 68 -152 -8 -228 -45 -45 -115 -74 -178 -74 -115 2 -275 84 -358
184 -34 42 -88 148 -88 174 0 11 -4 32 -10 47 -7 18 -6 43 4 83 18 80 30 99
84 133 38 24 57 29 107 29 56 0 64 -3 93 -33 38 -39 49 -89 32 -141 -17 -53
-52 -76 -115 -76 -45 0 -55 4 -69 25 -23 35 -20 69 9 103 36 43 11 56 -27 13
-76 -85 19 -211 130 -172 49 18 71 38 93 86 23 51 23 89 0 141 -44 98 -171
120 -268 48 -17 -13 -36 -24 -41 -24 -5 0 -12 39 -15 88 -14 187 -98 333 -267
462 l-34 26 36 21 c39 23 68 71 68 112 0 39 -41 102 -80 124 -52 29 -135 28
-194 -3 -43 -21 -61 -40 -124 -119 l-19 -24 -30 44 c-36 52 -55 70 -103 96
-38 21 -109 34 -149 26z m114 -39 c47 -19 147 -120 143 -143 -2 -11 -21 -19
-63 -26 -33 -5 -66 -14 -72 -18 -22 -14 -34 3 -28 36 13 67 -34 118 -89 97
-24 -9 -44 -45 -32 -57 3 -4 18 4 31 17 35 33 59 18 63 -37 3 -34 -1 -44 -24
-62 -46 -36 -98 -21 -129 39 -20 39 -19 66 6 107 36 59 119 79 194 47z m479 1
c80 -33 99 -132 36 -187 -49 -45 -104 -31 -129 31 -11 25 -10 33 4 55 22 33
53 34 65 0 11 -28 30 -24 30 6 0 22 -54 55 -73 44 -36 -21 -57 -50 -57 -80 0
-18 5 -36 10 -39 16 -10 0 -27 -19 -19 -9 3 -45 12 -80 18 -36 6 -66 16 -68
23 -7 20 80 116 127 139 53 27 103 30 154 9z m-128 -220 c121 -37 238 -129
316 -249 118 -183 119 -438 2 -618 -84 -131 -201 -223 -333 -262 -80 -24 -274
-22 -345 3 -58 20 -172 91 -221 138 -153 145 -214 344 -170 554 18 84 35 124
86 199 71 105 193 201 289 229 25 7 54 17 65 21 11 5 67 9 124 9 85 1 121 -4
187 -24z m-707 -880 c40 -71 135 -166 206 -206 31 -17 53 -34 50 -38 -4 -3
-34 -4 -68 -3 -65 3 -203 -23 -417 -78 -113 -29 -180 -37 -180 -22 0 4 31 19
68 34 129 53 238 167 277 290 9 29 18 59 20 66 7 20 11 15 44 -43z m1112 4
c13 -109 150 -264 279 -316 154 -62 30 -55 -205 12 -123 34 -259 57 -321 53
-72 -4 -84 9 -31 34 80 38 215 179 240 251 12 31 32 13 38 -34z m-481 -300 c0
-3 -23 -29 -50 -58 l-51 -52 -44 46 c-24 25 -49 45 -55 45 -5 0 -10 6 -10 13
0 9 28 12 105 12 58 0 105 -3 105 -6z"></path>
<path d="M3303 4385 c-88 -24 -152 -63 -227 -138 -107 -108 -155 -223 -155
-372 0 -199 110 -383 281 -467 104 -52 129 -58 242 -58 188 0 330 71 428 212
63 91 81 134 99 242 11 67 11 87 -4 159 -43 209 -182 364 -376 421 -68 20
-216 20 -288 1z m15 -187 c17 -17 207 -16 260 1 62 21 76 9 80 -64 2 -46 -1
-64 -20 -91 -13 -19 -26 -34 -30 -34 -5 0 -8 -5 -8 -11 0 -8 4 -8 13 -2 18 15
75 24 82 13 3 -6 21 -10 39 -10 70 0 74 -51 13 -143 -64 -95 -72 -120 -59
-176 6 -25 12 -73 14 -106 3 -50 0 -60 -15 -63 -22 -4 -48 54 -52 117 l-3 43
-187 1 -187 0 -3 -49 c-4 -61 -20 -103 -41 -111 -24 -9 -35 9 -25 44 5 17 12
69 16 115 l7 83 -56 85 c-71 106 -74 160 -8 160 13 0 32 5 43 10 13 7 31 8 54
1 19 -5 35 -8 35 -6 0 2 -11 21 -25 41 -45 67 -28 164 30 164 11 0 26 -5 33
-12z"></path>
<path d="M3210 3930 c0 -11 5 -20 10 -20 6 0 10 9 10 20 0 11 -4 20 -10 20 -5
0 -10 -9 -10 -20z"></path>
<path d="M3388 3932 c-76 -7 -36 -22 57 -22 57 0 95 4 95 10 0 6 -12 10 -27
11 -16 1 -41 2 -58 3 -16 1 -47 0 -67 -2z"></path>
<path d="M3294 3916 c-8 -22 3 -33 18 -18 9 9 9 15 0 24 -9 9 -13 7 -18 -6z"></path>
<path d="M3572 3909 c2 -6 8 -10 13 -10 5 0 11 4 13 10 2 6 -4 11 -13 11 -9 0
-15 -5 -13 -11z"></path>
<path d="M3650 3895 c0 -8 5 -15 10 -15 6 0 10 7 10 15 0 8 -4 15 -10 15 -5 0
-10 -7 -10 -15z"></path>
<path d="M3240 3833 c0 -43 22 -84 34 -64 4 6 3 18 -3 24 -5 7 -8 22 -5 33 3
12 -1 26 -10 33 -14 12 -16 9 -16 -26z"></path>
<path d="M3625 3815 c0 -27 4 -44 10 -42 13 5 18 33 11 63 -10 39 -21 28 -21
-21z"></path>
<path d="M3500 3780 c0 -5 23 -10 50 -10 28 0 50 5 50 10 0 6 -22 10 -50 10
-27 0 -50 -4 -50 -10z"></path>
<path d="M4336 2521 c-3 -5 1 -11 9 -15 8 -3 14 -13 12 -23 -1 -10 3 -20 8
-23 15 -7 19 39 5 56 -14 16 -26 18 -34 5z"></path>
<path d="M656 2511 c-7 -10 22 -37 30 -28 9 8 -3 37 -15 37 -5 0 -12 -4 -15
-9z"></path>
<path d="M835 2507 c-3 -7 -5 -52 -3 -98 l3 -84 60 0 c50 0 60 3 63 18 3 16 1
17 -18 7 -11 -6 -33 -10 -48 -8 -27 3 -27 4 -28 88 -1 52 -6 86 -13 88 -6 2
-13 -3 -16 -11z"></path>
<path d="M1000 2446 c0 -91 21 -126 76 -126 19 0 34 5 34 10 0 6 -13 10 -30
10 -39 0 -50 23 -50 109 0 56 -3 71 -15 71 -12 0 -15 -15 -15 -74z"></path>
<path d="M1133 2499 c4 -13 7 -45 7 -71 0 -27 5 -48 10 -48 17 0 8 132 -9 138
-10 3 -12 -1 -8 -19z"></path>
<path d="M1210 2510 c0 -6 8 -23 19 -38 17 -25 63 -97 87 -138 6 -11 17 -15
27 -11 14 5 8 19 -36 84 -29 43 -56 86 -60 96 -7 18 -37 24 -37 7z"></path>
<path d="M1321 2498 c-5 -13 -7 -25 -5 -27 7 -8 44 31 38 40 -9 16 -24 10 -33
-13z"></path>
<path d="M1417 2513 c-4 -3 -7 -36 -7 -73 0 -86 22 -120 79 -120 38 0 83 32
67 47 -4 5 -12 0 -17 -10 -13 -23 -61 -22 -82 1 -13 14 -17 38 -17 90 0 66 -6
83 -23 65z"></path>
<path d="M1547 2514 c-8 -8 1 -24 14 -24 5 0 9 7 9 15 0 15 -12 20 -23 9z"></path>
<path d="M1629 2435 c-1 -47 -2 -91 -3 -97 -1 -7 6 -14 14 -16 13 -2 15 14 15
98 0 73 -3 100 -12 100 -9 0 -13 -24 -14 -85z"></path>
<path d="M1705 2489 c4 -19 2 -41 -5 -54 -10 -19 -8 -28 14 -64 26 -41 51 -60
63 -48 3 3 -9 24 -26 45 -32 41 -39 66 -21 77 14 9 13 48 -2 63 -21 21 -30 13
-23 -19z"></path>
<path d="M1840 2420 c0 -82 3 -100 15 -100 12 0 15 18 15 100 0 82 -3 100 -15
100 -12 0 -15 -18 -15 -100z"></path>
<path d="M2040 2514 c0 -3 12 -20 26 -37 23 -27 26 -37 21 -82 l-6 -50 19 24
c28 33 26 83 -6 120 -23 27 -54 42 -54 25z"></path>
<path d="M2174 2439 c4 -56 11 -88 23 -101 17 -19 53 -25 53 -8 0 6 -7 10 -15
10 -24 0 -36 38 -34 108 2 57 0 68 -15 70 -16 3 -17 -4 -12 -79z"></path>
<path d="M2309 2516 c-8 -8 3 -146 12 -146 5 0 9 29 9 65 0 36 0 68 1 72 1 9
-15 15 -22 9z"></path>
<path d="M2456 2512 c-7 -12 22 -38 31 -28 4 3 0 14 -9 22 -9 10 -18 12 -22 6z"></path>
<path d="M2620 2431 c0 -50 0 -94 0 -98 0 -5 6 -8 13 -8 9 0 12 26 12 94 0 67
-4 96 -12 99 -10 3 -13 -19 -13 -87z"></path>
<path d="M2710 2505 c0 -7 6 -18 14 -22 7 -4 42 -41 76 -80 35 -40 67 -73 71
-73 20 0 5 25 -63 105 -68 81 -98 102 -98 70z"></path>
<path d="M2860 2460 c0 -33 4 -60 10 -60 6 0 10 27 10 60 0 33 -4 60 -10 60
-6 0 -10 -27 -10 -60z"></path>
<path d="M2920 2505 c-7 -9 -10 -18 -7 -22 8 -7 37 15 37 28 0 14 -16 11 -30
-6z"></path>
<path d="M2990 2430 c0 -49 0 -93 -1 -97 0 -5 7 -9 15 -11 14 -3 16 11 16 97
0 83 -3 101 -15 101 -12 0 -15 -17 -15 -90z"></path>
<path d="M3062 2504 c1 -9 9 -19 16 -22 9 -3 13 2 10 14 -1 9 -9 19 -16 22 -9
3 -13 -2 -10 -14z"></path>
<path d="M3139 2515 c0 -3 -1 -47 -1 -97 -1 -88 1 -93 21 -96 21 -3 29 12 11
23 -6 4 -8 41 -6 91 3 66 1 84 -10 84 -8 0 -14 -2 -15 -5z"></path>
<path d="M3212 2511 c2 -7 7 -12 11 -12 12 1 9 15 -3 20 -7 2 -11 -2 -8 -8z"></path>
<path d="M3300 2430 c0 -49 0 -93 -1 -97 0 -5 7 -9 15 -11 14 -3 16 11 16 97
0 83 -3 101 -15 101 -12 0 -15 -17 -15 -90z"></path>
<path d="M3379 2514 c-1 -5 0 -20 1 -33 1 -13 -4 -35 -11 -48 -11 -20 -9 -27
17 -60 34 -41 60 -60 69 -51 4 3 -2 15 -13 26 -41 41 -54 69 -43 91 15 28 14
56 -4 71 -8 7 -15 9 -16 4z"></path>
<path d="M3515 2420 c0 -80 3 -100 14 -98 10 2 14 25 14 98 0 73 -4 96 -14 98
-11 2 -14 -18 -14 -98z"></path>
<path d="M3720 2514 c0 -3 9 -17 20 -31 25 -32 27 -99 3 -125 -14 -16 -15 -18
0 -18 25 0 47 40 47 85 0 32 -6 47 -28 68 -27 26 -42 33 -42 21z"></path>
<path d="M3850 2515 c-1 -3 -1 -47 -1 -97 -1 -77 2 -94 15 -96 14 -3 16 10 16
97 0 83 -3 101 -15 101 -8 0 -15 -2 -15 -5z"></path>
<path d="M3925 2489 c4 -19 2 -41 -5 -55 -12 -21 -10 -28 16 -65 28 -41 49
-57 60 -46 4 3 -9 24 -27 46 -31 40 -32 42 -19 81 10 32 11 42 0 55 -21 25
-32 18 -25 -16z"></path>
<path d="M4126 2512 c-3 -6 -1 -14 5 -17 15 -10 25 3 12 16 -7 7 -13 7 -17 1z"></path>
<path d="M4577 2514 c-4 -4 -7 -50 -7 -101 0 -81 2 -94 16 -91 13 2 16 19 16
98 0 87 -7 112 -25 94z"></path>
<path d="M4642 2508 c3 -7 13 -15 22 -16 12 -3 17 1 14 10 -3 7 -13 15 -22 16
-12 3 -17 -1 -14 -10z"></path>
<path d="M4729 2516 c-2 -2 -2 -42 1 -87 5 -78 7 -84 32 -98 34 -19 48 -7 20
16 -18 15 -22 31 -24 92 -3 65 -13 93 -29 77z"></path>
<path d="M4860 2439 c0 -101 18 -96 21 5 2 47 -1 71 -9 74 -9 3 -12 -20 -12
-79z"></path>
<path d="M4944 2507 c-10 -28 1 -180 14 -185 9 -3 12 21 12 97 0 63 -4 101
-10 101 -6 0 -13 -6 -16 -13z"></path>
<path d="M5019 2514 c-1 -5 0 -21 1 -36 1 -15 -3 -36 -9 -46 -8 -16 -5 -28 20
-61 16 -23 37 -45 45 -48 30 -11 26 7 -10 47 -38 42 -43 55 -26 65 15 9 12 61
-5 75 -8 7 -15 9 -16 4z"></path>
<path d="M5147 2514 c-6 -6 138 -175 155 -182 19 -8 6 37 -17 58 -14 14 -44
48 -67 77 -38 50 -56 62 -71 47z"></path>
<path d="M5296 2513 c-9 -10 -7 -93 3 -93 5 0 11 21 13 46 3 44 -2 61 -16 47z"></path>
<path d="M5374 2507 c-10 -28 1 -180 14 -185 9 -3 12 21 12 97 0 63 -4 101
-10 101 -6 0 -13 -6 -16 -13z"></path>
<path d="M5453 2505 c-3 -9 -3 -18 0 -21 9 -9 27 6 27 22 0 19 -19 18 -27 -1z"></path>
<path d="M5525 2507 c-3 -7 -5 -51 -3 -98 2 -65 6 -84 18 -87 13 -2 15 13 13
95 -2 90 -14 128 -28 90z"></path>
<path d="M5590 2511 c0 -5 6 -14 14 -20 16 -13 32 2 21 19 -8 12 -35 13 -35 1z"></path>
<path d="M5670 2443 c0 -70 3 -82 23 -101 24 -22 87 -31 87 -12 0 6 -13 10
-29 10 -41 0 -50 16 -53 100 -2 48 -7 75 -15 78 -10 3 -13 -17 -13 -75z"></path>
<path d="M5800 2435 c0 -50 4 -85 10 -85 6 0 10 28 10 63 0 34 3 72 6 85 5 16
2 22 -10 22 -13 0 -16 -13 -16 -85z"></path>
<path d="M5889 2515 c0 -3 -1 -47 -1 -97 0 -72 3 -94 13 -96 11 -2 14 18 14
98 0 73 -3 100 -12 100 -7 0 -13 -2 -14 -5z"></path>
<path d="M5957 2513 c-4 -3 -2 -12 5 -20 9 -11 9 -23 -1 -49 -12 -33 -11 -39
14 -75 25 -39 50 -57 61 -46 4 3 -9 24 -27 46 -31 40 -32 42 -19 81 10 32 11
42 0 55 -13 16 -23 19 -33 8z"></path>
<path d="M6100 2515 c-1 -3 -1 -47 -1 -97 -1 -84 1 -93 18 -93 10 0 18 6 17
13 -1 6 -2 50 -2 97 -2 68 -5 85 -17 85 -8 0 -15 -2 -15 -5z"></path>
<path d="M6172 2508 c3 -7 13 -15 22 -16 12 -3 17 1 14 10 -3 7 -13 15 -22 16
-12 3 -17 -1 -14 -10z"></path>
<path d="M6336 2512 c-3 -6 -1 -14 5 -17 15 -10 25 3 12 16 -7 7 -13 7 -17 1z"></path>
<path d="M536 2479 c-38 -44 -35 -84 10 -126 41 -38 60 -37 24 2 -31 33 -31
97 0 130 19 20 20 25 8 25 -9 0 -28 -14 -42 -31z"></path>
<path d="M2387 2503 c-19 -18 -4 -54 34 -85 31 -25 39 -38 36 -56 -3 -17 0
-22 12 -20 9 2 17 15 19 29 2 19 -6 32 -38 57 -27 22 -40 41 -40 57 0 24 -10
32 -23 18z"></path>
<path d="M4050 2495 c-17 -21 4 -61 41 -81 30 -15 43 -42 33 -68 -9 -23 13
-20 26 4 16 30 3 58 -41 87 -33 22 -39 31 -34 50 6 26 -6 30 -25 8z"></path>
<path d="M4301 2497 c-10 -13 -10 -24 -1 -51 13 -40 102 -126 131 -126 29 0
23 12 -27 49 -53 40 -74 69 -83 113 -6 27 -8 29 -20 15z"></path>
<path d="M6262 2493 c-16 -29 -9 -44 39 -83 33 -26 39 -37 35 -56 -9 -33 11
-31 26 2 12 25 10 29 -34 68 -26 23 -48 52 -50 66 l-3 25 -13 -22z"></path>
<path d="M1936 2478 c-30 -43 -14 -114 31 -144 33 -21 42 -9 14 20 -30 32 -38
89 -17 121 14 21 14 25 2 25 -8 0 -22 -10 -30 -22z"></path>
<path d="M3615 2480 c-29 -32 -24 -95 11 -131 15 -16 34 -29 41 -29 18 0 16 6
-12 34 -20 20 -25 35 -25 74 0 26 5 53 12 60 7 7 8 12 2 12 -6 0 -19 -9 -29
-20z"></path>
<path d="M2708 2394 c-3 -62 2 -81 20 -71 10 7 2 137 -8 137 -5 0 -10 -30 -12
-66z"></path>
<path d="M3202 2428 c5 -15 28 -18 29 -3 0 6 -7 12 -17 13 -10 3 -15 -1 -12
-10z"></path>
<path d="M4400 2419 c0 -24 23 -21 28 4 2 10 -3 17 -12 17 -10 0 -16 -9 -16
-21z"></path>
<path d="M6162 2428 c3 -7 13 -15 22 -16 12 -3 17 1 14 10 -3 7 -13 15 -22 16
-12 3 -17 -1 -14 -10z"></path>
<path d="M4640 2420 c0 -5 7 -10 15 -10 8 0 15 5 15 10 0 6 -7 10 -15 10 -8 0
-15 -4 -15 -10z"></path>
<path d="M720 2390 c0 -5 13 -10 29 -10 17 0 33 5 36 10 4 6 -8 10 -29 10 -20
0 -36 -4 -36 -10z"></path>
<path d="M4277 2393 c-13 -12 -7 -40 11 -56 20 -18 72 -23 72 -7 0 6 -8 10
-18 10 -23 0 -42 19 -42 42 0 18 -11 24 -23 11z"></path>
<path d="M1215 2350 c-20 -22 -15 -36 10 -27 8 4 15 16 15 27 0 25 -2 25 -25
0z"></path>
<path d="M2375 2360 c-7 -12 11 -40 26 -40 14 0 10 26 -5 39 -10 9 -16 9 -21
1z"></path>
<path d="M4040 2356 c0 -16 28 -42 36 -33 7 6 -18 47 -28 47 -5 0 -8 -6 -8
-14z"></path>
<path d="M6250 2351 c0 -13 26 -32 33 -24 8 7 -11 33 -24 33 -5 0 -9 -4 -9 -9z"></path>
<path d="M655 2339 c-12 -19 5 -23 22 -6 16 16 16 17 1 17 -9 0 -20 -5 -23
-11z"></path>
<path d="M3218 2343 c-10 -2 -18 -9 -18 -14 0 -15 43 -7 48 9 4 12 0 13 -30 5z"></path>
<path d="M5142 2338 c6 -18 28 -21 28 -4 0 9 -7 16 -16 16 -9 0 -14 -5 -12
-12z"></path>
<path d="M6173 2343 c-7 -2 -13 -9 -13 -15 0 -14 43 -6 48 10 4 12 -12 15 -35
5z"></path>
<path d="M2270 2330 c0 -5 5 -10 10 -10 6 0 10 5 10 10 0 6 -4 10 -10 10 -5 0
-10 -4 -10 -10z"></path>
<path d="M4820 2330 c0 -5 5 -10 10 -10 6 0 10 5 10 10 0 6 -4 10 -10 10 -5 0
-10 -4 -10 -10z"></path>
<path d="M2054 1936 c-3 -7 -4 -40 -2 -72 l3 -59 38 -3 c42 -4 52 15 10 20
-26 3 -28 6 -28 53 0 47 2 50 28 53 39 5 33 22 -8 22 -21 0 -38 -6 -41 -14z"></path>
<path d="M2167 1944 c-3 -4 3 -20 15 -36 l21 -30 -23 -30 c-12 -16 -19 -33
-15 -36 4 -4 14 3 22 16 20 29 37 28 51 -4 7 -14 17 -22 23 -19 7 5 5 14 -6
28 -27 38 -27 46 -6 76 12 16 17 32 12 35 -5 3 -17 -6 -26 -21 l-18 -27 -22
27 c-11 15 -24 25 -28 21z"></path>
<path d="M2306 1928 c-31 -44 -8 -128 36 -128 11 0 31 -9 45 -20 26 -21 53
-26 53 -12 0 5 -12 14 -26 21 -25 11 -25 13 -10 30 22 25 21 93 -2 114 -27 25
-78 22 -96 -5z m82 -10 c17 -17 15 -73 -2 -88 -42 -34 -92 22 -68 75 13 27 49
34 70 13z"></path>
<path d="M2457 1943 c-10 -10 -8 -88 3 -117 8 -21 16 -26 45 -26 47 0 67 31
63 97 -4 65 -22 57 -28 -14 -4 -45 -9 -59 -23 -61 -32 -6 -48 17 -46 69 3 49
-2 65 -14 52z"></path>
<path d="M2667 1943 c-16 -16 -5 -50 24 -74 35 -29 32 -49 -7 -49 -14 0 -22
-4 -19 -10 9 -14 48 -13 63 2 20 20 13 45 -19 71 -33 26 -32 47 2 47 10 0 19
5 19 10 0 11 -53 14 -63 3z"></path>
<path d="M2775 1938 c-9 -24 -1 -128 10 -131 13 -3 19 123 6 136 -7 7 -12 5
-16 -5z"></path>
<path d="M2830 1941 c0 -5 7 -11 15 -15 11 -4 15 -21 15 -61 0 -30 5 -55 10
-55 6 0 10 25 10 55 0 40 4 57 15 61 28 11 15 24 -25 24 -22 0 -40 -4 -40 -9z"></path>
<path d="M2954 1936 c-3 -7 -4 -40 -2 -72 l3 -59 38 -3 c42 -4 52 15 10 20
-26 3 -28 6 -28 53 0 47 2 50 28 53 39 5 33 22 -8 22 -21 0 -38 -6 -41 -14z"></path>
<path d="M3112 1937 c-14 -16 -20 -126 -7 -129 6 -2 11 16 13 40 4 50 16 54
28 10 13 -43 32 -47 47 -9 15 40 23 39 31 -4 4 -19 11 -35 16 -35 11 0 2 120
-10 133 -4 5 -16 -9 -27 -29 -26 -50 -39 -52 -53 -10 -13 42 -24 51 -38 33z"></path>
<path d="M3286 1928 c-38 -53 -9 -128 49 -128 24 0 39 7 49 22 22 31 20 91 -2
111 -27 25 -78 22 -96 -5z m86 -23 c16 -36 0 -79 -32 -83 -28 -5 -50 20 -50
58 0 53 61 71 82 25z"></path>
<path d="M3434 1936 c-3 -7 -4 -40 -2 -72 l3 -59 37 -3 c27 -2 43 3 57 17 27
27 28 91 3 114 -23 21 -90 23 -98 3z m84 -18 c16 -16 15 -60 -1 -82 -8 -11
-23 -17 -38 -14 -20 2 -25 9 -27 42 -2 21 -1 44 2 52 7 17 48 18 64 2z"></path>
<path d="M3584 1936 c-3 -7 -4 -40 -2 -72 l3 -59 38 -3 c42 -4 52 15 10 20
-26 3 -28 6 -28 53 0 47 2 50 28 53 39 5 33 22 -8 22 -21 0 -38 -6 -41 -14z"></path>
<path d="M3694 1937 c-9 -23 0 -127 11 -125 5 2 9 8 7 15 -6 26 22 25 43 -1
16 -20 25 -24 30 -16 4 6 0 19 -8 28 -15 14 -15 18 1 44 12 22 14 33 6 46 -14
22 -82 29 -90 9z m71 -17 c9 -14 -13 -50 -31 -50 -17 0 -28 24 -20 45 6 17 42
20 51 5z"></path>
<path d="M3830 1930 c0 -11 6 -23 14 -26 7 -3 28 -27 45 -55 18 -27 37 -47 42
-44 12 8 12 135 -1 135 -5 0 -10 -18 -10 -40 0 -22 -4 -40 -10 -40 -5 0 -21
20 -36 45 -28 48 -44 57 -44 25z"></path>
<path d="M4024 1936 c-3 -7 -4 -40 -2 -72 l3 -59 42 -3 c33 -2 44 1 57 20 22
31 21 91 -2 111 -23 21 -90 23 -98 3z m84 -18 c17 -17 15 -73 -2 -88 -16 -12
-57 -11 -56 3 0 4 0 27 0 52 0 40 2 45 23 45 13 0 28 -5 35 -12z"></path>
<path d="M4175 1939 c-4 -6 -5 -12 -3 -14 7 -8 78 7 78 16 0 13 -68 11 -75 -2z"></path>
<path d="M4284 1929 c-19 -21 -19 -21 20 -54 41 -34 42 -58 1 -53 -13 2 -24
-1 -25 -7 -1 -15 49 -18 66 -4 22 18 17 42 -17 70 -33 27 -33 49 2 49 10 0 19
5 19 10 0 18 -47 10 -66 -11z"></path>
<path d="M4396 1943 c-10 -10 -7 -131 3 -137 5 -4 11 25 13 65 3 67 -1 86 -16
72z"></path>
<path d="M4460 1923 c-16 -21 -20 -36 -16 -61 8 -50 23 -63 70 -60 34 2 42 7
44 26 4 25 -13 30 -22 7 -8 -22 -53 -19 -66 4 -24 46 5 96 54 89 14 -2 26 2
28 7 2 6 -13 11 -33 13 -30 3 -41 -2 -59 -25z"></path>
<path d="M4597 1943 c-11 -10 -8 -133 3 -133 6 0 10 21 10 46 0 56 15 55 50
-6 36 -61 47 -61 55 3 8 61 5 88 -10 87 -5 0 -10 -21 -9 -45 0 -25 -3 -45 -7
-45 -4 0 -21 23 -39 50 -32 49 -40 56 -53 43z"></path>
<path d="M4749 1928 c-11 -20 -8 -25 26 -54 40 -33 40 -57 2 -52 -12 1 -24 -2
-27 -7 -7 -15 49 -18 66 -4 22 18 17 42 -17 70 -33 27 -33 49 2 49 10 0 19 5
19 10 0 6 -13 10 -30 10 -20 0 -33 -7 -41 -22z"></path>
<path d="M2600 1875 c0 -37 4 -65 10 -65 6 0 10 28 10 65 0 37 -4 65 -10 65
-6 0 -10 -28 -10 -65z"></path>
<path d="M2100 1880 c0 -5 5 -10 10 -10 6 0 10 5 10 10 0 6 -4 10 -10 10 -5 0
-10 -4 -10 -10z"></path>
<path d="M3000 1880 c0 -5 5 -10 10 -10 6 0 10 5 10 10 0 6 -4 10 -10 10 -5 0
-10 -4 -10 -10z"></path>
<path d="M3630 1880 c0 -5 5 -10 10 -10 6 0 10 5 10 10 0 6 -4 10 -10 10 -5 0
-10 -4 -10 -10z"></path>
<path d="M4180 1881 c0 -6 5 -13 10 -16 6 -3 10 1 10 9 0 9 -4 16 -10 16 -5 0
-10 -4 -10 -9z"></path>
<path d="M4220 1880 c0 -5 5 -10 10 -10 6 0 10 5 10 10 0 6 -4 10 -10 10 -5 0
-10 -4 -10 -10z"></path>
<path d="M3825 1830 c-4 -6 -3 -16 3 -22 6 -6 12 -6 17 2 4 6 3 16 -3 22 -6 6
-12 6 -17 -2z"></path>
<path d="M4177 1824 c-13 -13 5 -24 39 -24 19 0 34 5 34 10 0 6 -9 10 -19 10
-11 0 -26 2 -33 5 -8 3 -17 3 -21 -1z"></path>
</g>
</svg>